<svg width="184" height="65" viewBox="0 0 184 65" fill="none" xmlns="http://www.w3.org/2000/svg">
<path d="M41.8806 30.4838C40.0955 28.3011 36.9617 27.0395 33.7527 26.3123C34.4892 25.3211 35.0381 24.224 35.355 23.0503C38.3005 20.5734 40.1173 17.2134 40.1173 13.5151C40.1173 6.57857 33.427 2.09668 23.0739 2.09668C12.7209 2.09668 6.03122 6.57857 6.03122 13.5147C6.03122 17.2128 7.84737 20.5729 10.7929 23.0498C11.1099 24.224 11.6593 25.3216 12.3958 26.3129C9.18497 27.0399 6.05237 28.3016 4.26794 30.4838C2.31251 32.8752 1.94767 35.7153 3.26786 38.2776C4.2437 40.1715 6.01016 41.7058 8.17805 42.6352C7.49564 44.7645 7.07295 47.8494 8.27315 51.5213C11.0104 59.8984 24.0486 64.754 24.6024 64.9564C24.6819 64.9857 24.7658 64.9999 24.8491 64.9999C25.0169 64.9999 25.1816 64.9427 25.3015 64.8353C25.4812 64.6749 25.5222 64.4363 25.4048 64.2392C25.3799 64.1973 22.9391 60.0247 25.5073 56.9314C26.7541 55.4291 28.6094 54.2833 30.4038 53.1751C32.2946 52.0072 34.2499 50.8 35.4719 49.1755C37.2712 46.7841 37.6268 44.5443 37.4894 42.8265C39.8761 41.9254 41.834 40.3094 42.8813 38.277C44.2002 35.7153 43.836 32.8747 41.8806 30.4838Z" fill="#EDF0F5"/>
<path d="M38.8831 28.6849C37.0471 26.4404 33.6386 25.217 30.253 24.5518C28.0726 27.0631 24.5615 28.7007 20.5886 28.7007C16.6151 28.7007 13.104 27.0631 10.9242 24.5518C7.53864 25.217 4.13012 26.4404 2.29412 28.6849C-1.38602 33.1841 1.43761 38.3663 6.43981 40.2549C5.70573 42.3177 5.1464 45.4901 6.38693 49.2858C9.07579 57.5177 22.3638 62.3791 22.3638 62.3791C22.3638 62.3791 19.6918 57.9313 22.5116 54.534C25.1563 51.3485 30.1697 49.8424 32.4607 46.7985C34.2993 44.3558 34.5453 42.0698 34.3353 40.3991C39.5861 38.6431 42.6608 33.3036 38.8831 28.6849Z" fill="#FDD922"/>
<path d="M32.3102 20.6945C35.2165 18.3042 37.0116 15.0307 37.0116 11.4179C37.0109 4.1007 29.6593 0.52417 20.5898 0.52417C11.5202 0.52417 4.16797 4.1007 4.16797 11.4179C4.16797 15.0307 5.96241 18.3042 8.86935 20.6945C8.69966 20.0168 8.60643 19.3148 8.60643 18.5941V16.2458L18.6729 10.238C18.4367 9.77671 18.2981 9.22626 18.2981 8.63389C18.2981 7.01466 19.3243 5.70158 20.5898 5.70158C21.8552 5.70158 22.8814 7.01419 22.8814 8.63389C22.8814 9.22626 22.7428 9.77671 22.5066 10.238L32.5731 16.2458V18.5941C32.5731 19.3148 32.4799 20.0168 32.3102 20.6945Z" fill="#FDD922"/>
<path d="M20.5872 2.09669C29.3272 2.09669 36.4694 5.41958 36.9772 12.2095C36.9965 11.9473 37.0089 11.6842 37.0089 11.4179C37.0083 4.1007 29.6567 0.52417 20.5872 0.52417C11.5176 0.52417 4.16602 4.1007 4.16602 11.4179C4.16602 11.6837 4.17837 11.9473 4.19765 12.2095C4.70485 5.41958 11.847 2.09669 20.5872 2.09669Z" fill="white"/>
<path d="M22.5057 10.2383C22.0961 11.0377 21.3913 11.5666 20.5889 11.5666C19.7865 11.5666 19.081 11.0377 18.672 10.2383L8.60547 16.2461V18.5944C8.60547 24.1761 13.9706 28.7009 20.5889 28.7009C27.207 28.7009 32.5722 24.1761 32.5722 18.5944V16.2461L22.5057 10.2383Z" fill="white"/>
<path d="M20.5885 5.70215C19.3231 5.70215 18.2969 7.01475 18.2969 8.63445C18.2969 10.2542 19.3231 11.5668 20.5885 11.5668C21.854 11.5668 22.8801 10.2542 22.8801 8.63445C22.8801 7.01475 21.854 5.70215 20.5885 5.70215Z" fill="#0089EF"/>
<path d="M6.98461 49.1461C6.64092 48.0946 6.41966 47.0258 6.32709 45.9691C6.30154 45.6802 6.00072 45.4579 5.66143 45.4852C5.31896 45.5067 5.06222 45.7577 5.08768 46.0466C5.18596 47.171 5.42089 48.3074 5.78629 49.4246C5.8622 49.6573 6.11201 49.8097 6.38484 49.8097C6.4396 49.8097 6.49491 49.8035 6.55023 49.7904C6.88147 49.7139 7.07606 49.425 6.98461 49.1461Z" fill="#3F3F3F"/>
<path d="M39.3943 28.3871C37.6092 26.2044 34.4754 24.9432 31.2663 24.2161C32.0035 23.2243 32.5529 22.1262 32.8699 20.9514C35.8147 18.4747 37.6309 15.1162 37.6309 11.4185C37.6309 4.48189 30.9412 0 20.5882 0C10.2351 0 3.54546 4.48189 3.54546 11.418C3.54546 15.1156 5.36161 18.4747 8.30655 20.951C8.62347 22.1262 9.17354 23.2243 9.91071 24.2166C6.69921 24.9432 3.56661 26.2044 1.78153 28.3866C-0.17381 30.778 -0.538653 33.618 0.781534 36.1803C1.75859 38.0763 3.52748 39.6117 5.69856 40.5411C5.42376 41.4024 5.18883 42.4125 5.08756 43.5657C5.0621 43.8545 5.31875 44.1056 5.66122 44.1271C6.0006 44.148 6.30142 43.9316 6.32688 43.6432C6.4158 42.6332 6.61712 41.7373 6.85458 40.9641C7.53203 41.1743 8.23747 41.3305 8.96351 41.4212C14.5754 42.1226 19.1524 39.3679 20.5882 38.3788C21.8648 39.2584 25.6289 41.535 30.3912 41.535C30.9841 41.535 31.592 41.4998 32.2129 41.4222C32.7412 41.3561 33.2571 41.2535 33.7612 41.1235C33.8165 42.6201 33.4461 44.5108 31.9357 46.5179C30.8393 47.9747 29.0629 49.0718 27.1834 50.2329C25.307 51.3913 23.3672 52.5897 22.0022 54.2335C19.938 56.7203 20.5689 59.6636 21.2004 61.3201C18.1729 60.0017 11.0792 56.4881 8.00695 51.3593C7.85157 51.1009 7.47859 50.9966 7.17159 51.1282C6.86516 51.2587 6.74273 51.5743 6.89745 51.8327C11.0388 58.7457 21.6659 62.6961 22.116 62.8606C22.1955 62.89 22.2794 62.9041 22.3627 62.9041C22.5305 62.9041 22.6952 62.847 22.8152 62.7396C22.9948 62.5792 23.0358 62.3407 22.9184 62.1436C22.8935 62.1016 20.4527 57.9291 23.0209 54.8358C24.2677 53.3335 26.1237 52.1877 27.918 51.079C29.8088 49.9116 31.7636 48.7043 32.9855 47.0799C34.7854 44.6874 35.1391 42.4497 35.0012 40.7318C37.3891 39.8308 39.3476 38.2147 40.3949 36.1819C41.7151 33.6186 41.3502 30.778 39.3943 28.3871ZM32.9302 15.8181L23.2547 10.0436C23.4119 9.61476 23.5007 9.13938 23.5007 8.63452C23.5007 6.69659 22.221 5.17798 20.5876 5.17798C19.4912 5.17798 18.5564 5.86367 18.0592 6.89941L11.2072 2.70692C13.2223 1.86352 15.5407 1.37082 17.9075 1.16472C17.9199 1.17371 17.9267 1.18569 17.9398 1.19364L36.3493 12.0873C36.1784 14.7125 35.0217 17.1265 33.1627 19.0953C33.1719 18.9281 33.1925 18.7635 33.1925 18.5942V16.2457C33.1931 16.0754 33.0949 15.9161 32.9302 15.8181ZM18.9181 8.63452C18.9181 7.3293 19.6826 6.22636 20.5882 6.22636C21.4938 6.22636 22.2583 7.3293 22.2583 8.63452C22.2583 9.93973 21.4938 11.0421 20.5882 11.0421C19.6826 11.0421 18.9181 9.93926 18.9181 8.63452ZM36.3679 10.8172L19.8721 1.05624C20.1115 1.051 20.3502 1.04838 20.5882 1.04838C28.0218 1.04838 35.949 3.63054 36.3679 10.8172ZM10.0095 3.26991L13.9576 5.68537L4.80658 10.8634C4.99986 7.26903 7.0647 4.82156 10.0095 3.26991ZM4.82839 12.1141L15.0297 6.3412L17.7254 7.99085C17.6937 8.19891 17.6751 8.41325 17.6751 8.63452C17.6751 9.13985 17.7639 9.61522 17.9211 10.0436L8.24562 15.8181C8.08089 15.9166 7.98327 16.0759 7.98327 16.2457V18.5942C7.98327 18.7635 8.00386 18.9281 8.01312 19.0953C6.16093 17.1332 5.00548 14.7288 4.82839 12.1141ZM9.22642 16.5173L18.457 11.008C18.9846 11.6764 19.7373 12.0905 20.5876 12.0905C21.4378 12.0905 22.1905 11.6764 22.7182 11.008L31.95 16.5173V18.5942C31.95 23.1787 28.1107 27.0174 23.0022 27.9537L23.3684 26.673L22.4789 26.0492L20.5882 26.5482L18.8137 26.0492L17.8081 26.673L18.2028 27.96C13.08 27.0326 9.22642 23.1876 9.22642 18.5942V16.5173ZM39.2544 35.7631C37.9908 38.2153 35.223 39.9864 32.0308 40.3849C27.0137 41.0102 22.8817 38.5905 21.4788 37.6381C22.4224 36.7941 24.929 34.7776 28.1094 34.0149C28.4396 33.9358 28.631 33.6458 28.5371 33.3674C28.4433 33.0892 28.0995 32.9277 27.7695 33.0068C25.5717 33.5342 23.7009 34.5768 22.3572 35.5099C21.5944 34.82 18.4998 32.3852 13.4007 32.9916C13.0607 33.032 12.8239 33.2972 12.8717 33.5835C12.9196 33.8702 13.2385 34.072 13.5734 34.0295C18.0641 33.4955 20.7691 35.6142 21.4223 36.2008C20.7013 36.77 20.2581 37.2046 20.1413 37.3226C19.5346 37.7834 14.9228 41.1077 9.14555 40.3849C5.95333 39.986 3.18567 38.2153 1.92201 35.7631C0.759726 33.508 1.07365 31.0999 2.8052 28.9826C4.46598 26.9524 7.54392 25.7986 10.6808 25.1449C12.5896 27.1942 15.3672 28.6325 18.5439 29.0723L19.0511 30.726L19.7466 30.1044L20.5882 31.352L21.5913 30.1044L22.2341 30.6385L22.684 29.0654C25.8396 28.6173 28.5968 27.1825 30.4956 25.1445C33.6306 25.7982 36.7098 26.9519 38.3711 28.9826C40.1028 31.0999 40.4166 33.5075 39.2544 35.7631Z" fill="#3F3F3F"/>
<path d="M15.3019 16.9243C14.6399 16.9243 14.1035 17.3768 14.1035 17.935C14.1035 18.4932 14.6399 18.9456 15.3019 18.9456C15.9639 18.9456 16.5003 18.4932 16.5003 17.935C16.5003 17.3768 15.9639 16.9243 15.3019 16.9243Z" fill="#3F3F3F"/>
<path d="M25.8761 16.9243C25.2141 16.9243 24.6777 17.3768 24.6777 17.935C24.6777 18.4932 25.2141 18.9456 25.8761 18.9456C26.538 18.9456 27.0744 18.4932 27.0744 17.935C27.0744 17.3768 26.5374 16.9243 25.8761 16.9243Z" fill="#3F3F3F"/>
<path d="M20.5894 22.2092C21.684 22.2092 22.574 21.4586 22.574 20.5354V19.8619C22.574 19.5725 22.2955 19.3376 21.9525 19.3376C21.6094 19.3376 21.3309 19.5725 21.3309 19.8619V20.5354C21.3309 20.8804 20.9984 21.1608 20.5894 21.1608C20.1804 21.1608 19.8485 20.8804 19.8485 20.5354V19.8619C19.8485 19.5725 19.5701 19.3376 19.227 19.3376C18.8839 19.3376 18.6055 19.5725 18.6055 19.8619V20.5354C18.6048 21.4586 19.4955 22.2092 20.5894 22.2092Z" fill="#3F3F3F"/>
<path d="M25.0525 16.5087C25.0786 16.5087 25.1041 16.5077 25.1302 16.5045L27.4765 16.2571C27.8171 16.2214 28.0589 15.9594 28.016 15.672C27.9737 15.3848 27.6586 15.1808 27.3224 15.2171L24.9761 15.4644C24.6355 15.5002 24.3936 15.7623 24.4366 16.0495C24.4764 16.3147 24.7442 16.5087 25.0525 16.5087Z" fill="#3F3F3F"/>
<path d="M13.6968 16.2571L16.0431 16.5045C16.0692 16.5071 16.0953 16.5087 16.1207 16.5087C16.4297 16.5087 16.6976 16.3147 16.7367 16.0495C16.7796 15.7623 16.5378 15.5002 16.1972 15.4644L13.8509 15.2171C13.5134 15.1808 13.1995 15.3848 13.1573 15.672C13.1144 15.9588 13.3562 16.2209 13.6968 16.2571Z" fill="#3F3F3F"/>
<path d="M18.8208 24.7095H22.3555C22.6986 24.7095 22.9771 24.4747 22.9771 24.1854C22.9771 23.896 22.6986 23.6611 22.3555 23.6611H18.8208C18.4777 23.6611 18.1992 23.896 18.1992 24.1854C18.1992 24.4747 18.4777 24.7095 18.8208 24.7095Z" fill="#3F3F3F"/>
<path d="M73.5887 35.0915C73.3837 36.5564 73.0467 37.9773 72.5777 39.3542C72.1087 40.7312 71.5307 42.0349 70.8417 43.2653C70.1677 44.4812 69.3987 45.5944 68.5346 46.6052C67.685 47.6306 66.7768 48.5022 65.81 49.2199C64.8432 49.9524 63.8325 50.5236 62.7778 50.9338C61.7378 51.344 60.6904 51.549 59.6357 51.549C58.9326 51.549 58.2221 51.4245 57.5044 51.1755C56.8012 50.9411 56.164 50.5529 55.5927 50.011C55.0361 49.469 54.582 48.7512 54.2304 47.8576C53.8789 46.9787 53.7031 45.9021 53.7031 44.6277C53.7031 42.9577 53.9155 41.2219 54.3403 39.4201C54.7651 37.6037 55.351 35.7946 56.0981 33.9929C56.8452 32.1765 57.7168 30.3967 58.7129 28.6535C59.709 26.8957 60.7783 25.2331 61.9209 23.6657C63.0781 22.0837 64.2719 20.6262 65.5024 19.2932C66.7475 17.9455 67.978 16.7883 69.1937 15.8215C70.4097 14.8547 71.5887 14.1003 72.7317 13.5583C73.8737 13.0017 74.9217 12.7234 75.8737 12.7234C76.6057 12.7234 77.2137 12.8332 77.6977 13.0529C78.1807 13.258 78.5617 13.529 78.8397 13.8659C79.1327 14.2028 79.3307 14.591 79.4327 15.0305C79.5507 15.4553 79.6087 15.8874 79.6087 16.3269C79.6087 17.1032 79.4987 17.8283 79.2797 18.5022C79.0737 19.1613 78.8027 19.7619 78.4667 20.3039C78.1297 20.8313 77.7557 21.3 77.3457 21.7102C76.9357 22.1203 76.5327 22.4646 76.1367 22.7429C75.7417 23.0212 75.3677 23.2336 75.0167 23.3801C74.6797 23.5119 74.4157 23.5778 74.2257 23.5778C74.0207 23.5778 73.8737 23.5559 73.7857 23.5119C73.7127 23.468 73.6767 23.3215 73.6767 23.0725C73.7347 22.633 73.8957 22.1569 74.1597 21.6443C74.4237 21.1316 74.7017 20.6042 74.9947 20.0622C75.2877 19.5056 75.5437 18.9343 75.7637 18.3484C75.9977 17.7624 76.1157 17.1765 76.1157 16.5905C76.1157 16.1804 76.0347 15.8069 75.8737 15.4699C75.7267 15.133 75.4337 14.9646 74.9947 14.9646C74.3647 14.9646 73.6547 15.2356 72.8637 15.7776C72.0727 16.3049 71.2377 17.0373 70.3587 17.9748C69.4937 18.9123 68.6079 20.0256 67.6997 21.3147C66.7915 22.5891 65.9126 23.9734 65.063 25.4675C64.228 26.9616 63.4297 28.529 62.6679 30.1696C61.9209 31.8103 61.269 33.4582 60.7124 35.1135C60.1557 36.7688 59.7163 38.4021 59.394 40.0134C59.0717 41.6247 58.9106 43.1482 58.9106 44.5837C58.9106 45.1257 58.9692 45.6311 59.0864 46.0998C59.2182 46.5539 59.416 46.9494 59.6797 47.2863C59.9433 47.6379 60.2729 47.9089 60.6684 48.0993C61.0639 48.3044 61.5327 48.4069 62.0747 48.4069C62.7778 48.4069 63.459 48.2385 64.1181 47.9016C64.7773 47.5793 65.3852 47.1472 65.9419 46.6052C66.5132 46.0778 67.0258 45.4699 67.4799 44.7815C67.9487 44.0783 68.3442 43.3606 68.6665 42.6281C69.0037 41.8811 69.2597 41.1486 69.4357 40.4309C69.6257 39.6985 69.7207 39.0393 69.7207 38.4533C69.7207 37.7942 69.5967 37.3108 69.3477 37.0031C69.1137 36.6809 68.813 36.4685 68.4467 36.3659C68.0952 36.2634 67.707 36.2341 67.2822 36.278C66.872 36.3073 66.4839 36.3366 66.1176 36.3659C65.7661 36.3952 65.4658 36.3952 65.2168 36.3659C64.9824 36.322 64.8652 36.1682 64.8652 35.9045C64.8652 35.6848 64.9238 35.4944 65.041 35.3332C65.1728 35.1574 65.3413 35.0036 65.5464 34.8718C65.7661 34.74 66.0078 34.6228 66.2715 34.5202C66.5351 34.403 66.7988 34.2932 67.0625 34.1906C67.5605 34.0002 68.1977 33.8244 68.9737 33.6633C69.7647 33.5022 70.5997 33.3557 71.4787 33.2238C72.3577 33.092 73.2297 32.9748 74.0937 32.8723C74.9727 32.7551 75.7637 32.6526 76.4667 32.5647C76.7447 32.5647 76.8847 32.7331 76.8847 33.07L76.5107 33.6413C76.2027 34.3298 75.6607 34.7546 74.8847 34.9157C74.6647 34.9597 74.4457 34.9963 74.2257 35.0256C74.0057 35.0402 73.7937 35.0622 73.5887 35.0915ZM89.8257 24.0173C89.8257 24.3396 89.7307 24.7277 89.5407 25.1819C89.3497 25.6213 89.1007 26.0461 88.7937 26.4563C88.5007 26.8518 88.1707 27.1887 87.8047 27.467C87.4527 27.7453 87.1087 27.8845 86.7717 27.8845C86.3177 27.8845 85.9297 27.7453 85.6077 27.467C85.2997 27.1887 85.1457 26.8957 85.1457 26.5881C85.1457 26.4563 85.1897 26.2585 85.2777 25.9948C85.3807 25.7312 85.5047 25.4455 85.6517 25.1379C85.8127 24.8156 85.9957 24.4934 86.2007 24.1711C86.4207 23.8342 86.6477 23.5339 86.8817 23.2702C87.1307 22.9919 87.3727 22.7722 87.6067 22.6111C87.8557 22.4353 88.0977 22.3474 88.3317 22.3474C88.9177 22.3474 89.3137 22.4865 89.5187 22.7649C89.7237 23.0432 89.8257 23.4607 89.8257 24.0173ZM86.9917 39.2224C86.4787 40.3796 85.9147 41.4416 85.2997 42.4084C84.6987 43.3606 84.0767 44.1809 83.4317 44.8694C82.7877 45.5432 82.1207 46.0705 81.4327 46.4514C80.7587 46.8322 80.0927 47.0227 79.4327 47.0227C78.9347 47.0227 78.5107 46.9128 78.1587 46.6931C77.8067 46.488 77.5217 46.2024 77.3017 45.8361C77.0677 45.4699 76.8987 45.0451 76.7967 44.5617C76.6937 44.0637 76.6427 43.529 76.6427 42.9577C76.6427 41.8884 76.7887 40.8337 77.0817 39.7937C77.3747 38.739 77.7487 37.7136 78.2027 36.7175C78.6717 35.7068 79.1987 34.718 79.7847 33.7512C80.3707 32.7844 80.9567 31.8469 81.5427 30.9387C81.6747 30.719 81.8357 30.5212 82.0257 30.3454C82.2167 30.1696 82.3997 30.0818 82.5747 30.0818C82.8237 30.0818 83.0737 30.1257 83.3227 30.2136C83.5717 30.3015 83.7987 30.4187 84.0037 30.5652C84.2087 30.697 84.3697 30.8508 84.4867 31.0266C84.6187 31.1877 84.6847 31.3562 84.6847 31.5319C84.6847 31.737 84.5597 32.0739 84.3107 32.5427C84.0617 33.0114 83.7467 33.5754 83.3657 34.2346C82.9857 34.8791 82.5747 35.5969 82.1357 36.3879C81.7107 37.1789 81.3077 37.9992 80.9277 38.8488C80.5467 39.6985 80.2317 40.5554 79.9827 41.4196C79.7337 42.2693 79.6087 43.0822 79.6087 43.8586C79.6087 44.049 79.6157 44.2395 79.6307 44.4299C79.6597 44.6057 79.7117 44.7668 79.7847 44.9133C79.8727 45.0451 79.9967 45.155 80.1577 45.2429C80.3337 45.3161 80.5687 45.3527 80.8617 45.3527C81.1687 45.3527 81.5497 45.1696 82.0037 44.8034C82.4727 44.4372 82.9557 43.9538 83.4537 43.3532C83.9667 42.738 84.4717 42.0495 84.9697 41.2878C85.4827 40.5114 85.9297 39.7204 86.3107 38.9148C86.4277 38.6804 86.5597 38.5632 86.7057 38.5632C86.8087 38.5632 86.8967 38.5925 86.9697 38.6511C87.0427 38.7097 87.0797 38.7976 87.0797 38.9148C87.0797 39.0027 87.0507 39.1052 86.9917 39.2224ZM98.7027 39.2224C98.1757 40.3064 97.5607 41.3318 96.8577 42.2985C96.1547 43.2653 95.3927 44.115 94.5727 44.8474C93.7667 45.5652 92.9097 46.1364 92.0017 46.5612C91.1077 46.9861 90.2067 47.1985 89.2987 47.1985C88.6397 47.1985 88.0537 47.0593 87.5407 46.781C87.0287 46.5173 86.5957 46.1511 86.2447 45.6823C85.8927 45.2136 85.6297 44.6643 85.4537 44.0344C85.2777 43.4045 85.1897 42.7307 85.1897 42.0129C85.1897 40.8264 85.3507 39.6838 85.6737 38.5852C85.9957 37.4865 86.4207 36.4611 86.9477 35.509C87.4747 34.5569 88.0757 33.6853 88.7497 32.8943C89.4237 32.1032 90.1047 31.4294 90.7927 30.8728C91.4817 30.3015 92.1477 29.862 92.7927 29.5544C93.4517 29.2468 94.0227 29.093 94.5067 29.093C94.8727 29.093 95.1947 29.1662 95.4727 29.3127C95.7657 29.4592 96.0077 29.6569 96.1987 29.906C96.3887 30.1403 96.5277 30.404 96.6157 30.697C96.7187 30.99 96.7697 31.2829 96.7697 31.5759C96.7697 32.4694 96.5347 33.3996 96.0667 34.3664C95.5977 35.3186 94.9827 36.2268 94.2207 37.091C93.4587 37.9406 92.6017 38.7097 91.6497 39.3982C90.6977 40.072 89.7307 40.57 88.7497 40.8923C88.7497 41.4343 88.8007 41.947 88.9037 42.4304C89.0207 42.8991 89.1887 43.3166 89.4087 43.6828C89.6427 44.0344 89.9357 44.32 90.2877 44.5398C90.6387 44.7448 91.0567 44.8474 91.5397 44.8474C92.0237 44.8474 92.5137 44.7522 93.0117 44.5617C93.5107 44.3567 94.0227 44.0271 94.5507 43.573C95.0927 43.1042 95.6487 42.489 96.2197 41.7273C96.7917 40.9655 97.3917 40.028 98.0217 38.9148C98.1687 38.6804 98.3007 38.5632 98.4177 38.5632C98.5197 38.5632 98.6077 38.5925 98.6807 38.6511C98.7547 38.7097 98.7907 38.7976 98.7907 38.9148C98.7907 39.0027 98.7617 39.1052 98.7027 39.2224ZM93.8027 31.6198C93.3787 31.6198 92.9027 31.8689 92.3747 32.3669C91.8627 32.865 91.3647 33.5095 90.8807 34.3005C90.3977 35.0769 89.9577 35.9485 89.5627 36.9152C89.1817 37.8674 88.9257 38.8049 88.7937 39.7277C89.5117 39.3908 90.2217 38.9734 90.9247 38.4753C91.6427 37.9626 92.2797 37.3986 92.8367 36.7834C93.4077 36.1682 93.8687 35.5163 94.2207 34.8278C94.5727 34.1247 94.7477 33.4143 94.7477 32.6965C94.7477 32.4035 94.6677 32.1545 94.5067 31.9494C94.3447 31.7297 94.1107 31.6198 93.8027 31.6198ZM114.524 39.2224C114.011 40.3796 113.447 41.4709 112.832 42.4963C112.231 43.507 111.601 44.3933 110.942 45.155C110.283 45.9021 109.609 46.4953 108.921 46.9348C108.232 47.3742 107.551 47.594 106.877 47.594C106.408 47.594 105.998 47.4987 105.647 47.3083C105.31 47.1179 105.024 46.8542 104.79 46.5173C104.57 46.1804 104.402 45.7776 104.284 45.3088C104.182 44.8401 104.131 44.3274 104.131 43.7707C104.131 43.009 104.277 42.174 104.57 41.2658C104.878 40.343 105.259 39.4055 105.713 38.4533C106.181 37.5012 106.694 36.5637 107.251 35.6408C107.822 34.718 108.371 33.8611 108.899 33.07C108.532 33.3191 108.108 33.634 107.624 34.0149C107.156 34.3957 106.657 34.8132 106.13 35.2673C105.617 35.7214 105.09 36.2048 104.548 36.7175C104.006 37.2155 103.493 37.7136 103.01 38.2116C102.527 38.695 102.08 39.1638 101.67 39.6179C101.26 40.072 100.923 40.4821 100.659 40.8484C99.8527 41.947 99.1937 42.9358 98.6807 43.8147C98.1687 44.6936 97.7657 45.4113 97.4727 45.968C97.2677 46.3781 97.0627 46.6565 96.8577 46.8029C96.6527 46.9494 96.4397 47.0227 96.2197 47.0227C96.0297 47.0227 95.8317 46.9641 95.6267 46.8469C95.4217 46.7444 95.3197 46.5466 95.3197 46.2536C95.3197 46.0778 95.3997 45.719 95.5607 45.177C95.7217 44.635 95.9417 43.9904 96.2197 43.2434C96.4837 42.4817 96.7917 41.6467 97.1427 40.7385C97.4797 39.8303 97.8387 38.9148 98.2197 37.9919C98.5857 37.0544 98.9517 36.1462 99.3187 35.2673C99.6847 34.3737 100.022 33.5754 100.329 32.8723C100.637 32.1692 100.901 31.5905 101.12 31.1364C101.34 30.6677 101.487 30.3967 101.56 30.3235C101.75 30.133 102.058 30.0964 102.483 30.2136C102.922 30.3308 103.354 30.5139 103.779 30.7629C103.984 30.8947 104.138 31.0266 104.241 31.1584C104.358 31.2902 104.446 31.4148 104.504 31.5319C104.533 31.6052 104.541 31.6711 104.526 31.7297C104.512 31.7883 104.49 31.8396 104.46 31.8835C104.416 31.9275 104.248 32.1911 103.955 32.6745C103.662 33.1433 103.303 33.7512 102.878 34.4983C102.453 35.2307 101.985 36.0583 101.472 36.9812C100.959 37.904 100.469 38.8342 99.9997 39.7717C100.703 38.8049 101.384 37.9406 102.043 37.1789C102.702 36.4172 103.288 35.758 103.801 35.2014C104.387 34.5715 104.951 34.0075 105.493 33.5095C107.06 32.1325 108.276 31.1071 109.14 30.4333C110.019 29.7595 110.693 29.4226 111.162 29.4226C111.352 29.4226 111.55 29.4885 111.755 29.6203C111.975 29.7375 112.173 29.8986 112.348 30.1037C112.524 30.3088 112.671 30.5432 112.788 30.8069C112.905 31.0705 112.964 31.3415 112.964 31.6198C112.964 31.8982 112.832 32.279 112.568 32.7624C112.304 33.2312 111.975 33.7878 111.579 34.4323C111.184 35.0622 110.752 35.7653 110.283 36.5417C109.814 37.3034 109.382 38.1091 108.987 38.9587C108.591 39.8083 108.262 40.6872 107.998 41.5954C107.734 42.5036 107.602 43.4118 107.602 44.32C107.602 44.7448 107.661 45.1111 107.778 45.4187C107.91 45.7263 108.122 45.8801 108.415 45.8801C108.723 45.8801 109.104 45.6677 109.558 45.2429C110.027 44.8181 110.51 44.2688 111.008 43.5949C111.521 42.9211 112.026 42.174 112.524 41.3537C113.037 40.5188 113.484 39.7058 113.865 38.9148C113.982 38.6804 114.114 38.5632 114.26 38.5632C114.333 38.5632 114.407 38.5925 114.48 38.6511C114.568 38.695 114.612 38.7829 114.612 38.9148C114.612 39.0027 114.582 39.1052 114.524 39.2224ZM126.213 39.2224C125.686 40.3064 125.071 41.3318 124.367 42.2985C123.664 43.2653 122.903 44.115 122.082 44.8474C121.277 45.5652 120.42 46.1364 119.512 46.5612C118.618 46.9861 117.717 47.1985 116.809 47.1985C116.15 47.1985 115.564 47.0593 115.051 46.781C114.538 46.5173 114.106 46.1511 113.755 45.6823C113.403 45.2136 113.139 44.6643 112.964 44.0344C112.788 43.4045 112.7 42.7307 112.7 42.0129C112.7 40.8264 112.861 39.6838 113.183 38.5852C113.506 37.4865 113.93 36.4611 114.458 35.509C114.985 34.5569 115.586 33.6853 116.26 32.8943C116.933 32.1032 117.615 31.4294 118.303 30.8728C118.991 30.3015 119.658 29.862 120.303 29.5544C120.962 29.2468 121.533 29.093 122.016 29.093C122.383 29.093 122.705 29.1662 122.983 29.3127C123.276 29.4592 123.518 29.6569 123.708 29.906C123.899 30.1403 124.038 30.404 124.126 30.697C124.228 30.99 124.28 31.2829 124.28 31.5759C124.28 32.4694 124.045 33.3996 123.576 34.3664C123.108 35.3186 122.492 36.2268 121.731 37.091C120.969 37.9406 120.112 38.7097 119.16 39.3982C118.208 40.072 117.241 40.57 116.26 40.8923C116.26 41.4343 116.311 41.947 116.413 42.4304C116.531 42.8991 116.699 43.3166 116.919 43.6828C117.153 44.0344 117.446 44.32 117.798 44.5398C118.149 44.7448 118.567 44.8474 119.05 44.8474C119.533 44.8474 120.024 44.7522 120.522 44.5617C121.02 44.3567 121.533 44.0271 122.06 43.573C122.602 43.1042 123.159 42.489 123.73 41.7273C124.302 40.9655 124.902 40.028 125.532 38.9148C125.678 38.6804 125.81 38.5632 125.928 38.5632C126.03 38.5632 126.118 38.5925 126.191 38.6511C126.264 38.7097 126.301 38.7976 126.301 38.9148C126.301 39.0027 126.272 39.1052 126.213 39.2224ZM121.313 31.6198C120.888 31.6198 120.412 31.8689 119.885 32.3669C119.372 32.865 118.874 33.5095 118.391 34.3005C117.907 35.0769 117.468 35.9485 117.073 36.9152C116.692 37.8674 116.435 38.8049 116.303 39.7277C117.021 39.3908 117.732 38.9734 118.435 38.4753C119.153 37.9626 119.79 37.3986 120.346 36.7834C120.918 36.1682 121.379 35.5163 121.731 34.8278C122.082 34.1247 122.258 33.4143 122.258 32.6965C122.258 32.4035 122.178 32.1545 122.016 31.9494C121.855 31.7297 121.621 31.6198 121.313 31.6198Z" fill="white"/>
<path d="M130.476 43.8148C130.534 44.0345 130.513 44.3055 130.411 44.6278C130.323 44.9354 130.169 45.2283 129.95 45.5067C129.744 45.785 129.487 46.0267 129.179 46.2318C128.886 46.4222 128.572 46.5174 128.235 46.5174C127.781 46.5174 127.37 46.4295 127.004 46.2537C126.638 46.0633 126.418 45.8509 126.345 45.6165C126.302 45.4554 126.302 45.265 126.345 45.0452C126.405 44.8109 126.5 44.5765 126.632 44.3421C126.763 44.0931 126.924 43.8441 127.114 43.595C127.304 43.346 127.511 43.119 127.73 42.9139C127.847 42.7967 127.987 42.7235 128.148 42.6942C128.309 42.6649 128.454 42.6502 128.586 42.6502C129.172 42.6502 129.598 42.7454 129.862 42.9359C130.14 43.1116 130.344 43.4046 130.476 43.8148ZM138.739 40.8924C138.739 41.4051 138.797 41.9031 138.914 42.3865C139.032 42.8699 139.2 43.3021 139.42 43.6829C139.654 44.0491 139.947 44.3494 140.299 44.5838C140.665 44.8182 141.09 44.9354 141.573 44.9354C142.247 44.9354 142.898 44.7669 143.528 44.43C144.172 44.0784 144.774 43.6243 145.33 43.0677C145.902 42.5111 146.414 41.8738 146.868 41.1561C147.337 40.4236 147.733 39.6766 148.055 38.9149C148.099 38.7977 148.158 38.7098 148.231 38.6512C148.304 38.5926 148.377 38.5633 148.45 38.5633C148.553 38.5633 148.641 38.5926 148.714 38.6512C148.787 38.6951 148.823 38.783 148.823 38.9149C148.823 38.9588 148.817 39.0028 148.802 39.0467C148.787 39.0906 148.765 39.1492 148.736 39.2225C148.429 39.9842 147.989 40.8265 147.418 41.7493C146.846 42.6722 146.157 43.5364 145.351 44.3421C144.56 45.1331 143.668 45.7996 142.672 46.3416C141.676 46.8836 140.606 47.1546 139.464 47.1546C138.804 47.1546 138.189 47.0228 137.618 46.7591C137.061 46.5101 136.571 46.1512 136.146 45.6824C135.721 45.2137 135.391 44.6424 135.157 43.9686C134.908 43.2801 134.782 42.5111 134.782 41.6614C134.782 40.8118 134.915 39.911 135.179 38.9588C135.443 37.992 135.802 37.0399 136.256 36.1024C136.724 35.1649 137.273 34.264 137.903 33.3997C138.532 32.5355 139.214 31.7737 139.946 31.1146C140.678 30.4554 141.449 29.9354 142.254 29.5545C143.06 29.159 143.865 28.9612 144.67 28.9612C145.359 28.9612 145.865 29.1883 146.187 29.6424C146.524 30.0965 146.693 30.7117 146.693 31.4881C146.693 32.1033 146.554 32.682 146.275 33.2239C146.012 33.7659 145.689 34.2347 145.308 34.6302C144.942 35.0257 144.569 35.3406 144.188 35.575C143.822 35.7947 143.536 35.9046 143.331 35.9046C143.155 35.9046 143.067 35.824 143.067 35.6629C143.067 35.6043 143.11 35.4871 143.198 35.3113C143.33 35.0477 143.463 34.762 143.595 34.4544C143.741 34.1321 143.866 33.8172 143.968 33.5096C144.085 33.202 144.18 32.9017 144.254 32.6087C144.327 32.3157 144.364 32.0594 144.364 31.8397C144.364 31.3709 144.151 31.1365 143.726 31.1365C143.419 31.1365 143.082 31.2684 142.716 31.532C142.364 31.7957 141.998 32.1546 141.617 32.6087C141.251 33.0628 140.892 33.6048 140.54 34.2347C140.203 34.8499 139.896 35.5237 139.617 36.2562C139.354 36.9739 139.141 37.7283 138.98 38.5194C138.819 39.3104 138.739 40.1014 138.739 40.8924ZM162.556 38.827C162.38 39.2664 162.139 39.7498 161.832 40.2772C161.539 40.8045 161.179 41.2952 160.754 41.7493C160.344 42.1888 159.876 42.5623 159.349 42.8699C158.822 43.1776 158.228 43.3314 157.569 43.3314C157.379 43.3314 157.196 43.3167 157.02 43.2874C156.859 43.2581 156.698 43.2069 156.536 43.1336C156.126 43.7488 155.687 44.3275 155.218 44.8695C154.764 45.4114 154.273 45.8875 153.746 46.2977C153.219 46.6932 152.662 47.0081 152.076 47.2425C151.505 47.4769 150.904 47.5941 150.274 47.5941C149.688 47.5941 149.168 47.4915 148.714 47.2864C148.275 47.0814 147.901 46.7957 147.594 46.4295C147.286 46.0633 147.059 45.6312 146.912 45.1331C146.751 44.6204 146.67 44.0638 146.67 43.4632C146.67 42.8919 146.751 42.2108 146.912 41.4197C147.059 40.6287 147.315 39.7938 147.681 38.9149C148.033 38.036 148.486 37.1424 149.043 36.2342C149.614 35.326 150.311 34.4691 151.131 33.6634C151.951 32.8431 152.903 32.1107 153.987 31.4661C155.085 30.807 156.339 30.2869 157.745 29.9061H157.92C158.11 29.9061 158.287 29.9427 158.448 30.0159C158.609 30.0892 158.748 30.1844 158.866 30.3016C158.983 30.4188 159.071 30.5433 159.129 30.6751C159.202 30.807 159.239 30.9241 159.239 31.0267C159.239 31.2611 159.173 31.4295 159.041 31.532C158.909 31.6346 158.719 31.7078 158.47 31.7518C158.338 31.7811 158.111 31.825 157.789 31.8836C157.481 31.9276 157.093 32.0521 156.624 32.2571C156.17 32.4476 155.658 32.7552 155.086 33.18C154.515 33.5902 153.914 34.1688 153.284 34.9158C152.86 35.4139 152.45 36.0145 152.054 36.7176C151.673 37.4061 151.336 38.1238 151.043 38.8709C150.75 39.618 150.509 40.3651 150.318 41.1121C150.142 41.8445 150.054 42.5037 150.054 43.0897C150.054 43.866 150.238 44.4739 150.604 44.9134C150.97 45.3528 151.402 45.5726 151.9 45.5726C152.442 45.5726 153.021 45.2869 153.636 44.7156C154.266 44.1297 154.888 43.3533 155.504 42.3865C155.211 42.0203 154.968 41.5662 154.778 41.0242C154.587 40.4822 154.493 39.8377 154.493 39.0906C154.493 38.2703 154.596 37.45 154.801 36.6297C155.02 35.8094 155.305 35.0696 155.657 34.4105C156.008 33.7513 156.405 33.2166 156.844 32.8065C157.298 32.3817 157.76 32.1693 158.228 32.1693C158.682 32.1693 159.019 32.3743 159.239 32.7845C159.473 33.18 159.591 33.7073 159.591 34.3665C159.591 34.806 159.532 35.3333 159.415 35.9486C159.298 36.5491 159.129 37.201 158.909 37.9041C158.69 38.6072 158.419 39.3323 158.096 40.0794C157.789 40.8265 157.43 41.5589 157.02 42.2767C157.225 42.3792 157.467 42.4305 157.745 42.4305C158.258 42.4305 158.712 42.3133 159.107 42.0789C159.517 41.8445 159.884 41.5443 160.206 41.178C160.528 40.8118 160.82 40.4017 161.084 39.9476C161.347 39.4935 161.597 39.0467 161.832 38.6072C161.978 38.2996 162.132 38.1458 162.293 38.1458C162.381 38.1458 162.462 38.1751 162.535 38.2337C162.608 38.2923 162.645 38.3655 162.645 38.4534C162.645 38.5853 162.615 38.7098 162.556 38.827ZM155.767 39.6839C155.767 40.0355 155.789 40.3577 155.833 40.6507C155.877 40.9437 155.958 41.1927 156.075 41.3978C156.368 40.8851 156.639 40.3651 156.888 39.8377C157.137 39.2957 157.378 38.7318 157.612 38.1458C157.817 37.6038 157.972 37.157 158.075 36.8055C158.177 36.4393 158.228 36.1536 158.228 35.9486C158.228 35.4652 158.067 35.2235 157.745 35.2235C157.525 35.2235 157.298 35.3406 157.064 35.575C156.844 35.8094 156.632 36.1317 156.427 36.5418C156.236 36.952 156.075 37.428 155.943 37.97C155.826 38.4974 155.767 39.0687 155.767 39.6839ZM172.664 44.0345C172.664 43.3607 172.781 42.6282 173.015 41.8372C173.264 41.0316 173.594 40.2112 174.004 39.3763C174.414 38.5267 174.884 37.6697 175.411 36.8055C175.938 35.9266 176.48 35.0696 177.037 34.2347C177.008 34.264 176.977 34.2933 176.948 34.3226C176.933 34.3372 176.92 34.3592 176.905 34.3885C176.876 34.4178 176.861 34.4398 176.861 34.4544C176.627 34.7181 176.334 35.0477 175.982 35.4432C175.631 35.8387 175.242 36.2855 174.818 36.7835C174.408 37.2669 173.975 37.7869 173.521 38.3436C173.067 38.9002 172.606 39.4642 172.137 40.0355C171.683 40.5921 171.243 41.1487 170.819 41.7054C170.394 42.2474 170.005 42.7528 169.653 43.2215C169.082 43.9979 168.621 44.6204 168.27 45.0892C167.933 45.5579 167.662 45.9168 167.457 46.1658C167.252 46.4149 167.098 46.576 166.995 46.6492C166.893 46.7371 166.79 46.7811 166.688 46.7811C166.571 46.7811 166.417 46.7518 166.226 46.6932C166.036 46.6346 165.853 46.5467 165.677 46.4295C165.501 46.2977 165.347 46.1439 165.216 45.9681C165.084 45.7923 165.017 45.5872 165.017 45.3528C165.017 45.1917 165.062 45.0233 165.15 44.8475C165.677 43.5877 166.233 42.3279 166.819 41.0682C167.068 40.5262 167.332 39.9622 167.611 39.3763C167.889 38.7903 168.175 38.2044 168.468 37.6185C168.775 37.0179 169.083 36.432 169.39 35.8607C169.713 35.2894 170.027 34.7474 170.334 34.2347C169.866 34.7034 169.368 35.2308 168.841 35.8167C168.314 36.388 167.786 36.9739 167.259 37.5745C166.746 38.1605 166.256 38.7391 165.787 39.3104C165.318 39.8817 164.915 40.3944 164.578 40.8485C163.787 41.9324 163.143 42.8919 162.645 43.7269C162.161 44.5472 161.751 45.265 161.414 45.8802C161.209 46.2464 161.025 46.5247 160.864 46.7152C160.688 46.9202 160.44 47.0228 160.118 47.0228C159.942 47.0228 159.752 46.9642 159.547 46.847C159.327 46.7445 159.217 46.5467 159.217 46.2537C159.217 46.0779 159.298 45.7337 159.459 45.221C159.62 44.6937 159.832 44.0711 160.096 43.3533C160.345 42.6209 160.637 41.8226 160.974 40.9583C161.296 40.0941 161.634 39.2225 161.986 38.3436C162.337 37.45 162.68 36.5858 163.017 35.7508C163.354 34.9158 163.655 34.1688 163.918 33.5096C164.197 32.8358 164.417 32.2864 164.578 31.8616C164.754 31.4368 164.857 31.1951 164.886 31.1365C164.915 31.0779 165.003 31.034 165.15 31.0047C165.311 30.9754 165.493 30.9681 165.698 30.9827C165.903 30.9974 166.117 31.034 166.336 31.0926C166.556 31.1512 166.745 31.2391 166.907 31.3563C167.346 31.6785 167.633 31.9642 167.764 32.2132C167.852 32.345 167.896 32.4476 167.896 32.5208C167.896 32.5794 167.75 32.8431 167.457 33.3118C167.179 33.7659 166.819 34.3592 166.379 35.0916C165.94 35.8094 165.457 36.6297 164.93 37.5526C164.403 38.4754 163.904 39.4202 163.435 40.387C164.402 39.0247 165.223 37.8968 165.897 37.0032C166.571 36.1097 167.12 35.3919 167.545 34.8499C168.043 34.22 168.445 33.7293 168.752 33.3778C169.895 31.9129 170.804 30.8802 171.478 30.2796C172.166 29.679 172.62 29.3787 172.84 29.3787C173.031 29.3787 173.221 29.4373 173.411 29.5545C173.617 29.6717 173.8 29.8328 173.961 30.0379C174.122 30.2283 174.254 30.4554 174.356 30.7191C174.459 30.9681 174.51 31.2391 174.51 31.532C174.51 31.6932 174.495 31.8616 174.466 32.0374C174.437 32.1986 174.378 32.3597 174.29 32.5208C174.027 33.0042 173.703 33.5902 173.323 34.2786C172.942 34.9525 172.539 35.6702 172.114 36.432C171.704 37.1937 171.28 37.9774 170.841 38.783C170.401 39.574 169.991 40.3211 169.61 41.0242C170.401 39.911 171.126 38.9222 171.785 38.0579C172.459 37.1937 173.045 36.4612 173.543 35.8607C174.129 35.1575 174.649 34.557 175.103 34.0589C175.777 33.3265 176.341 32.7112 176.795 32.2132C177.264 31.7152 177.651 31.3123 177.959 31.0047C178.266 30.6971 178.509 30.4774 178.685 30.3455C178.875 30.2137 179.029 30.1478 179.146 30.1478C179.322 30.1478 179.513 30.221 179.718 30.3675C179.923 30.4993 180.106 30.6678 180.267 30.8729C180.443 31.0779 180.581 31.3123 180.683 31.576C180.801 31.825 180.86 32.0667 180.86 32.3011C180.86 32.6087 180.736 33.0042 180.487 33.4876C180.252 33.9564 179.952 34.4984 179.586 35.1136C179.22 35.7288 178.824 36.3953 178.399 37.1131C177.989 37.8309 177.601 38.5853 177.235 39.3763C176.868 40.1527 176.561 40.9656 176.312 41.8153C176.077 42.6502 175.959 43.4852 175.959 44.3201C175.959 44.7449 176.025 45.1112 176.157 45.4188C176.303 45.7264 176.524 45.8802 176.817 45.8802C177.125 45.8802 177.505 45.6678 177.959 45.243C178.413 44.8182 178.89 44.2689 179.388 43.595C179.901 42.9212 180.405 42.1741 180.903 41.3538C181.416 40.5189 181.87 39.7059 182.265 38.9149C182.309 38.827 182.362 38.7464 182.42 38.6732C182.493 38.5999 182.574 38.5633 182.662 38.5633C182.75 38.5633 182.829 38.5926 182.903 38.6512C182.976 38.6951 183.013 38.783 183.013 38.9149C183.013 39.0028 182.984 39.1053 182.926 39.2225C182.413 40.3797 181.849 41.471 181.234 42.4964C180.633 43.5071 180.003 44.3934 179.344 45.1551C178.685 45.9022 178.011 46.4954 177.323 46.9349C176.634 47.3743 175.952 47.5941 175.278 47.5941C174.809 47.5941 174.408 47.4988 174.071 47.3084C173.748 47.118 173.485 46.8616 173.28 46.5394C173.075 46.2171 172.921 45.8436 172.818 45.4188C172.716 44.9793 172.664 44.5179 172.664 44.0345Z" fill="#FDD922"/>
</svg>
